<?xml version="1.0" standalone="no"?>
<!DOCTYPE svg PUBLIC "-//W3C//DTD SVG 20010904//EN"
 "http://www.w3.org/TR/2001/REC-SVG-20010904/DTD/svg10.dtd">
<svg version="1.0" xmlns="http://www.w3.org/2000/svg"
 width="1000.000000pt" height="1000.000000pt" viewBox="0 0 1000.000000 1000.000000"
 preserveAspectRatio="xMidYMid meet">
<metadata>
Created by potrace 1.11, written by Peter Selinger 2001-2013
</metadata>
<g transform="translate(0.000000,1000.000000) scale(0.100000,-0.100000)"
fill="#000000" stroke="none">
<path d="M2855 9328 c-73 -44 -190 -133 -264 -202 -107 -99 -355 -358 -377
-393 -17 -27 0 -59 46 -88 63 -40 150 -119 150 -137 0 -14 -19 -8 -32 10 -28
39 -104 66 -173 63 -117 -6 -156 -21 -177 -67 -6 -13 -14 -24 -18 -24 -7 0
-17 -33 -27 -88 -2 -12 1 -31 8 -43 l11 -21 23 22 c24 23 45 20 45 -6 0 -21 8
-18 57 26 25 22 54 40 63 40 24 0 40 -47 28 -80 -11 -30 9 -87 25 -71 20 20
24 11 24 -59 0 -38 -4 -70 -8 -70 -5 0 -6 -7 -3 -15 4 -8 1 -15 -5 -15 -6 0
-11 -5 -11 -12 0 -15 -62 -141 -73 -149 -5 -3 -8 -8 -7 -10 2 -5 -16 -53 -37
-99 -38 -82 -144 -147 -253 -157 -60 -5 -61 -5 -99 36 -63 67 -125 208 -137
311 -1 14 -3 26 -4 28 -5 7 -2 70 4 80 4 7 2 12 -4 12 -6 0 -9 3 -7 8 3 4 8
25 11 47 12 74 17 98 21 105 3 4 8 25 11 46 3 22 7 44 8 49 1 6 4 15 7 20 9
17 5 38 -8 43 -7 2 -13 -3 -13 -12 0 -9 -5 -16 -11 -16 -5 0 -7 -4 -4 -10 3
-5 1 -10 -6 -10 -7 0 -10 -3 -6 -6 3 -4 -5 -21 -18 -39 -14 -17 -25 -37 -25
-43 0 -7 -5 -12 -11 -12 -5 0 -8 -4 -4 -9 3 -5 1 -12 -5 -16 -5 -3 -10 -15
-10 -26 0 -10 -5 -19 -10 -19 -14 0 -12 -240 1 -257 7 -7 6 -13 0 -17 -7 -4
-7 -15 -1 -30 5 -13 6 -26 4 -29 -3 -3 -1 -15 6 -26 6 -12 8 -21 5 -21 -6 0
-53 100 -56 118 -1 4 -5 17 -10 30 -32 83 -32 220 -2 352 31 137 37 180 25
180 -5 0 -22 -24 -36 -52 -15 -29 -36 -64 -47 -78 l-19 -25 11 30 c16 45 23
125 11 125 -6 0 -14 -10 -18 -22 -4 -13 -9 -25 -13 -28 -11 -9 -42 -63 -72
-127 -27 -59 -29 -70 -29 -193 0 -89 3 -130 11 -130 8 0 8 -4 0 -14 -7 -9 -8
-17 -2 -20 5 -3 8 -14 7 -24 -2 -9 1 -30 6 -47 4 -16 11 -43 14 -60 3 -16 9
-34 14 -39 5 -5 6 -15 3 -22 -3 -8 0 -14 7 -14 6 0 8 -4 5 -10 -7 -12 4 -28
70 -94 45 -46 138 -103 183 -111 9 -2 18 -4 20 -5 2 -3 6 -4 56 -14 21 -4 59
-17 85 -28 76 -34 84 -37 135 -48 55 -12 155 -14 201 -4 17 3 35 7 40 8 6 1
16 5 23 9 6 5 12 6 12 3 0 -6 86 38 116 59 18 14 20 13 21 -8 0 -23 10 -86 19
-127 3 -14 7 -38 10 -55 2 -16 9 -50 15 -75 5 -25 11 -54 13 -65 10 -54 40
-105 75 -129 20 -14 42 -26 49 -26 7 0 12 -5 12 -11 0 -5 4 -8 9 -4 5 3 12 1
16 -5 3 -5 15 -10 25 -10 10 0 26 -7 34 -16 9 -8 16 -12 16 -8 0 3 7 1 15 -6
8 -7 15 -9 15 -6 0 4 13 -2 29 -13 15 -11 31 -18 33 -15 3 2 12 -10 21 -27 14
-31 15 -83 1 -139 -3 -14 -7 -34 -9 -45 -2 -11 -4 -20 -5 -20 -5 0 -23 -124
-22 -147 0 -10 -2 -18 -6 -18 -4 0 -7 -12 -6 -27 0 -16 -3 -44 -7 -63 -4 -19
-10 -60 -13 -90 -4 -30 -8 -66 -11 -80 -3 -14 -7 -41 -10 -60 -3 -19 -7 -46
-10 -60 -3 -14 -7 -40 -10 -58 -2 -18 -7 -37 -10 -42 -3 -6 -8 -18 -10 -29 -2
-10 -12 -49 -24 -87 -11 -38 -22 -81 -25 -96 -2 -15 -8 -33 -12 -39 -5 -8 -3
-9 5 -4 10 6 11 3 3 -11 -5 -11 -12 -37 -16 -59 -3 -22 -8 -51 -11 -65 -2 -14
-6 -36 -8 -50 -7 -40 37 -82 60 -59 6 6 19 6 34 0 19 -7 36 -4 74 14 26 13 52
29 56 37 15 23 22 -1 12 -40 -8 -31 -7 -46 7 -72 11 -21 20 -29 24 -21 4 6 12
9 17 5 6 -3 38 12 72 35 91 59 106 62 226 55 135 -8 192 -9 223 -1 18 5 32 1
49 -14 41 -36 111 -59 184 -61 17 -1 44 -11 60 -23 36 -26 64 -39 85 -37 8 1
-5 -8 -30 -20 -25 -11 -48 -26 -52 -32 -4 -6 -8 -8 -8 -4 0 4 -25 -4 -55 -17
-30 -14 -55 -22 -55 -19 0 4 -6 1 -13 -5 -8 -6 -17 -8 -20 -4 -4 3 -7 1 -7 -5
0 -6 -15 -14 -32 -17 -18 -4 -37 -10 -43 -14 -5 -4 -28 -13 -50 -20 -22 -8
-51 -18 -65 -24 -14 -6 -27 -11 -30 -12 -112 -38 -193 -99 -220 -166 -8 -19
-25 -49 -38 -67 -30 -40 -70 -155 -68 -194 1 -15 -1 -28 -5 -28 -4 0 -6 -10
-3 -22 2 -13 7 -50 10 -83 7 -84 10 -108 18 -125 3 -8 8 -26 10 -40 3 -14 5
-26 7 -27 1 -2 3 -7 4 -13 1 -5 4 -12 5 -15 4 -8 7 -17 15 -53 4 -18 12 -35
16 -38 5 -3 7 -10 4 -15 -4 -5 -1 -9 4 -9 6 0 11 -5 11 -10 0 -6 7 -27 16 -48
8 -20 14 -39 14 -41 -1 -2 2 -7 8 -10 10 -7 100 -159 124 -211 17 -35 40 -93
39 -97 0 -2 6 -18 15 -38 8 -19 11 -35 8 -35 -4 0 -2 -6 4 -12 10 -13 23 -64
28 -108 1 -14 3 -25 4 -25 6 0 12 -110 10 -205 -1 -140 -4 -190 -10 -190 -3 0
-7 -12 -8 -27 -1 -16 -5 -39 -8 -53 -3 -14 -7 -36 -10 -50 -3 -14 -7 -32 -9
-40 -2 -8 -4 -15 -5 -15 -1 0 -3 -11 -5 -25 -6 -32 -11 -51 -18 -70 -5 -12
-25 -83 -32 -110 0 -3 -9 -32 -20 -65 -10 -33 -19 -62 -20 -65 0 -3 -14 -45
-29 -95 -16 -49 -29 -92 -29 -95 1 -3 -4 -16 -9 -30 -5 -14 -12 -38 -15 -55
-8 -40 -8 -244 -1 -275 14 -60 37 -130 54 -161 10 -19 18 -37 19 -41 1 -18 63
-73 103 -91 49 -22 60 -24 130 -30 24 -2 47 -9 51 -15 11 -18 98 -53 149 -59
26 -3 48 -6 50 -8 1 -1 -1 -22 -4 -46 l-6 -44 -59 -3 c-64 -3 -74 7 -38 39 21
18 21 18 -18 28 -21 5 -65 11 -98 14 -34 2 -76 12 -94 22 -23 11 -31 13 -25 3
4 -7 -8 -1 -27 13 -18 14 -56 37 -82 52 -44 24 -48 25 -42 7 8 -26 -9 -26 -47
1 l-30 22 -37 -41 c-20 -22 -54 -61 -76 -87 -22 -26 -45 -52 -50 -58 -6 -7
-38 -45 -72 -84 -62 -72 -79 -79 -67 -26 3 15 6 35 7 44 1 9 7 15 14 12 7 -3
13 0 13 5 0 15 54 92 85 121 61 57 71 92 45 159 l-12 33 -29 -27 -28 -27 -11
28 -11 28 -39 -41 c-21 -23 -57 -63 -80 -90 -27 -30 -39 -39 -36 -26 5 14 1
24 -9 27 -8 4 -14 3 -13 -1 1 -4 -10 -33 -25 -65 -15 -32 -27 -62 -27 -67 0
-6 -4 -10 -9 -10 -5 0 -19 -16 -32 -35 -13 -19 -27 -35 -31 -35 -15 0 -8 58
10 81 35 46 65 120 54 131 -8 8 -17 -2 -33 -38 -12 -27 -21 -55 -20 -61 1 -7
-2 -13 -7 -13 -18 0 -54 -135 -67 -250 -4 -35 -12 -73 -15 -77 -2 -2 -3 -11
-4 -20 -1 -10 -4 -23 -8 -28 -18 -29 -27 -240 -14 -308 3 -15 8 -39 11 -54 3
-16 8 -35 12 -43 3 -8 7 -22 9 -30 2 -9 10 -32 19 -53 8 -20 15 -40 14 -43 0
-4 3 -10 8 -13 4 -3 16 -22 25 -41 27 -56 62 -113 81 -134 9 -11 17 -25 17
-32 0 -19 26 -24 49 -8 19 14 23 14 37 0 13 -14 19 -14 52 4 27 15 38 17 41 8
2 -7 8 -17 13 -23 41 -49 48 -59 48 -67 0 -14 22 -9 78 17 29 13 56 25 60 25
4 1 13 7 20 12 10 9 4 20 -30 55 -23 23 -39 43 -35 44 4 0 33 1 65 1 47 0 75
9 163 50 87 41 106 53 102 68 -5 18 -33 37 -33 22 0 -11 -48 -13 -55 -2 -3 5
-40 -3 -85 -20 -44 -15 -80 -26 -80 -23 0 3 -7 0 -15 -7 -8 -7 -15 -10 -15 -7
0 4 -21 -3 -46 -13 l-45 -20 -30 32 c-16 18 -29 38 -29 45 0 7 -4 13 -9 13
-13 0 -68 127 -87 199 -11 46 -14 86 -10 145 3 44 6 89 6 98 2 38 16 24 15
-15 -1 -23 2 -46 6 -52 3 -5 9 -22 13 -38 9 -38 65 -93 101 -100 17 -4 24 -4
18 -1 -7 3 -13 14 -13 24 0 10 -4 22 -10 25 -6 3 -10 12 -10 18 0 7 8 0 17
-14 16 -26 76 -63 86 -53 3 3 -1 17 -8 32 -39 77 -38 173 1 232 28 43 55 60
51 32 -1 -9 -5 -22 -9 -27 -11 -17 -7 -219 4 -232 6 -7 8 -13 4 -13 -10 0 26
-53 53 -77 23 -20 61 -37 61 -27 0 3 -7 21 -16 42 -22 53 -28 162 -10 196 22
43 62 83 100 101 20 10 36 22 36 28 0 19 -43 151 -53 164 -7 10 -18 8 -48 -7
-21 -11 -39 -25 -39 -30 0 -15 -30 -12 -32 3 0 6 -2 17 -2 22 -1 6 -10 31 -20
57 l-18 47 -29 -14 c-35 -19 -39 -19 -39 0 0 13 -4 14 -21 5 -42 -23 -28 -1
45 73 41 41 82 87 92 102 13 19 20 23 23 14 8 -24 64 -71 110 -92 24 -10 68
-20 98 -22 39 -2 60 -9 77 -24 12 -12 26 -18 29 -14 4 3 7 2 7 -4 0 -13 77
-37 110 -34 42 3 54 6 68 14 16 11 22 -10 34 -130 1 -7 5 -13 10 -13 5 0 8 -6
6 -14 -5 -21 58 -111 110 -157 47 -41 126 -87 159 -92 10 -1 23 -6 30 -10 6
-4 14 -3 18 3 4 6 11 8 16 5 5 -4 17 -8 27 -10 10 -2 35 -15 56 -29 21 -14 42
-23 47 -20 5 3 9 0 9 -6 0 -7 6 -10 14 -7 19 7 40 -18 32 -38 -5 -13 -13 -12
-58 11 -29 15 -56 31 -59 36 -3 5 -10 10 -15 10 -5 0 -20 5 -33 10 -13 5 -47
11 -75 13 -28 2 -52 5 -53 5 -4 3 -52 2 -55 0 -2 -1 -17 -3 -34 -5 -67 -7
-142 -66 -173 -136 -56 -126 44 -332 174 -359 28 -6 66 -12 85 -13 29 -2 88
-33 110 -58 3 -3 15 -5 28 -6 12 0 23 -2 25 -3 4 -3 117 -17 202 -25 82 -7
150 -17 158 -22 5 -3 7 8 5 23 l-3 29 105 5 105 5 -3 33 c-1 17 1 32 5 32 5 1
67 3 138 5 141 5 143 5 226 29 31 9 65 18 75 21 11 2 37 10 59 19 36 13 37 15
13 15 -39 1 -42 2 -53 10 -11 8 -197 6 -234 -3 -19 -4 -81 -23 -141 -41 -3 -1
-18 -7 -33 -13 -48 -20 -55 -16 -52 31 2 23 4 42 5 42 1 0 3 11 4 25 5 44 17
101 28 129 6 14 12 33 14 41 1 8 4 22 6 31 7 32 113 237 121 232 4 -2 7 4 7
15 0 10 8 27 18 38 28 33 62 83 62 93 0 5 4 11 8 13 4 2 37 45 72 97 36 51 73
102 83 112 9 11 17 24 17 29 0 6 5 10 10 10 6 0 10 5 10 11 0 6 6 16 13 23 6
8 19 23 27 36 8 12 48 67 88 123 40 56 94 133 120 170 26 37 57 81 70 96 12
16 22 34 22 40 0 6 3 11 8 11 4 0 16 16 26 35 37 68 27 23 -19 -90 -5 -11 -9
-22 -9 -25 -1 -3 -7 -18 -13 -35 -18 -44 -36 -89 -38 -95 -1 -3 -4 -12 -8 -20
-90 -227 -102 -276 -88 -347 3 -13 24 4 43 35 l23 37 5 -34 c3 -19 10 -36 16
-38 10 -3 88 109 124 177 7 14 16 27 19 30 4 3 22 30 41 60 19 30 39 58 45 62
6 5 6 8 0 8 -7 0 -7 3 0 8 15 11 55 70 55 81 0 5 4 13 10 16 10 6 1 -26 -20
-70 -19 -42 -70 -181 -70 -192 0 -7 -5 -13 -11 -13 -5 0 -8 -4 -5 -8 2 -4 -1
-21 -9 -37 -28 -64 -36 -90 -37 -125 -2 -52 2 -80 11 -80 5 0 26 26 47 58 21
31 41 59 44 62 4 3 10 15 14 28 4 12 12 22 17 22 5 0 9 5 9 10 0 6 27 51 60
101 33 50 60 93 60 96 0 2 8 15 18 28 9 12 22 31 29 41 135 206 254 378 265
382 4 2 8 9 8 15 0 7 14 28 30 47 16 19 30 38 30 41 0 3 11 19 25 35 15 16 33
41 43 57 9 15 20 27 24 27 4 0 8 6 8 14 0 8 3 16 8 18 4 1 23 23 42 48 46 59
59 75 100 125 19 23 42 51 50 61 24 31 104 128 115 140 5 6 26 30 45 54 19 24
40 48 45 54 6 6 37 43 70 81 69 81 59 69 155 176 98 109 448 459 529 529 35
30 76 66 91 80 16 14 59 52 96 85 99 88 139 128 146 146 4 9 -2 30 -13 47 -18
30 -18 32 -1 41 14 8 22 4 38 -17 10 -14 30 -39 44 -54 l25 -28 40 20 c40 20
76 41 85 50 14 14 102 70 110 70 6 0 10 3 10 8 0 4 27 23 60 42 33 19 60 38
60 43 0 4 7 7 15 7 8 0 15 5 15 10 0 6 6 10 14 10 8 0 16 3 18 8 2 4 56 43
121 86 64 44 117 80 117 81 0 2 7 18 15 38 l15 35 -42 22 c-23 12 -57 22 -75
23 -18 1 -33 5 -33 9 0 27 36 72 168 207 149 152 183 202 152 221 -16 10 -68
5 -105 -9 -16 -7 -32 -12 -34 -11 -2 1 -7 -2 -10 -7 -3 -4 -24 -16 -46 -26
l-40 -19 25 28 c14 16 32 34 40 40 9 7 17 28 18 48 3 40 8 38 -98 38 -47 1
-73 -8 -175 -57 -66 -32 -125 -58 -132 -58 -7 0 -10 -4 -8 -8 4 -6 -16 -15
-54 -24 -8 -2 -18 -10 -22 -17 -5 -7 -9 -10 -9 -6 0 4 -35 -10 -77 -31 -113
-56 -120 -57 -117 -24 2 16 6 60 9 98 3 39 8 90 11 115 7 54 7 47 0 137 -2 40
-10 89 -16 110 -18 57 -54 138 -62 141 -5 2 -8 9 -8 16 0 7 -9 22 -20 34 -12
12 -17 22 -13 22 4 0 0 6 -8 13 -90 74 -275 384 -343 575 -31 86 -47 118 -78
154 -36 40 -53 24 -61 -54 -5 -44 -13 -42 -27 6 -6 24 -28 69 -49 99 -30 46
-39 54 -54 46 -9 -6 -17 -20 -17 -31 0 -19 -3 -18 -24 10 -22 30 -25 32 -40
17 -9 -9 -16 -17 -16 -18 -1 -1 -3 -20 -6 -42 -4 -22 -11 -49 -17 -60 -6 -11
-11 -23 -12 -27 0 -3 -3 -10 -7 -14 -5 -4 -8 10 -8 31 0 53 -19 111 -46 140
-28 30 -41 31 -49 4 l-7 -21 -22 21 c-12 12 -25 21 -29 21 -12 0 -59 -82 -77
-136 -11 -30 -17 -54 -14 -54 3 0 0 -9 -6 -20 -6 -11 -7 -20 -3 -20 4 0 8 -28
7 -63 0 -34 2 -66 5 -72 3 -5 6 -21 7 -35 2 -14 8 -43 14 -65 6 -22 12 -44 13
-50 1 -5 6 -16 10 -22 5 -7 6 -13 3 -13 -8 0 50 -135 89 -206 21 -37 57 -94
81 -128 24 -33 44 -66 44 -73 0 -7 4 -13 9 -13 10 0 96 -170 113 -222 25 -80
44 -193 42 -260 -2 -81 -13 -178 -22 -193 -4 -5 -8 -16 -9 -22 -2 -7 -4 -19
-6 -25 -1 -7 -6 -18 -9 -24 -22 -35 -26 -130 -8 -175 12 -28 13 -28 47 -14 30
13 35 12 39 0 4 -8 10 -12 15 -9 5 3 9 1 9 -5 0 -5 -15 -20 -32 -33 -18 -12
-44 -33 -58 -45 -14 -13 -33 -26 -42 -29 -10 -3 -18 -9 -18 -14 0 -4 -7 -11
-16 -14 -10 -4 -15 0 -13 12 1 9 0 19 -1 22 -1 3 -4 25 -6 50 -2 25 -6 63 -9
85 -13 98 -17 132 -21 160 -2 17 -6 41 -9 55 -3 14 -8 41 -11 60 -3 19 -9 46
-14 60 -5 14 -11 39 -14 55 -7 48 -25 87 -39 82 -12 -4 -14 -34 -17 -389 -1
-82 -5 -148 -9 -148 -4 0 -8 6 -8 13 -1 25 -13 133 -19 172 -3 22 -7 59 -8 82
0 24 -3 43 -6 43 -3 0 -7 13 -8 29 -4 52 -52 254 -64 268 -20 25 -30 -3 -31
-84 0 -65 -1 -72 -9 -43 -5 19 -10 40 -11 45 -2 6 -7 26 -11 45 -5 19 -10 38
-12 42 -7 11 -31 -1 -31 -15 -1 -7 -4 -234 -8 -506 -3 -291 -10 -502 -16 -513
-5 -10 -7 -18 -4 -18 6 0 -48 -81 -70 -106 -5 -6 -28 -33 -50 -59 -22 -27 -65
-78 -95 -114 -30 -36 -64 -75 -75 -86 -11 -11 -45 -52 -75 -90 -30 -39 -57
-72 -60 -75 -15 -14 -50 -71 -50 -80 0 -6 -4 -8 -10 -5 -5 3 -10 1 -10 -5 0
-13 -60 -103 -73 -108 -4 -2 -5 -8 -1 -13 3 -5 1 -9 -4 -9 -5 0 -17 -16 -28
-35 -10 -19 -22 -35 -26 -35 -5 0 -8 -4 -8 -9 0 -15 -82 -142 -87 -137 -3 3 0
29 8 58 7 29 13 62 14 73 1 11 5 27 8 35 7 17 18 87 18 113 0 9 3 17 7 17 8 0
13 62 15 195 1 100 -4 154 -22 223 -6 20 -12 51 -15 67 -3 17 -10 45 -15 63
-5 17 -7 32 -3 32 3 0 1 5 -6 12 -7 7 -12 24 -12 38 0 15 -3 30 -7 34 -4 3 -8
12 -9 19 -3 21 -36 132 -42 142 -4 6 -7 15 -7 20 -1 6 -5 19 -9 30 -4 11 -22
56 -38 100 -38 99 -120 261 -170 337 -21 31 -38 60 -38 63 0 3 -11 17 -25 31
-14 14 -25 29 -25 33 0 17 -181 191 -252 243 -77 57 -312 178 -373 194 -80 20
-125 25 -245 28 -80 3 -125 0 -148 -10 -18 -7 -36 -14 -40 -15 -4 0 -23 -9
-42 -19 -19 -10 -37 -18 -40 -18 -24 -1 -88 -17 -97 -25 -7 -5 -13 -6 -13 -2
0 4 -6 2 -13 -4 -8 -6 -17 -8 -20 -4 -4 3 -7 1 -7 -5 0 -7 -6 -12 -14 -12 -7
0 -19 -7 -26 -15 -7 -9 -15 -14 -17 -12 -5 5 -65 -48 -126 -112 -203 -213
-290 -294 -407 -381 -19 -14 -43 -35 -53 -47 -11 -12 -24 -20 -29 -17 -12 8
-114 7 -150 -1 -42 -10 -46 -43 -13 -104 17 -30 91 -114 186 -210 88 -88 159
-164 159 -170 0 -5 6 -14 13 -18 18 -11 69 -88 93 -138 10 -22 20 -42 23 -45
4 -3 8 -12 10 -20 2 -8 10 -40 19 -70 14 -54 24 -280 11 -280 -3 0 -15 11 -25
25 -10 14 -22 25 -27 25 -19 0 -56 -51 -63 -86 -8 -45 -15 -34 -34 59 -6 32
-22 70 -35 84 -21 25 -23 26 -39 10 -22 -21 -33 -21 -44 -1 -8 15 -11 15 -34
0 l-25 -17 -27 71 c-14 39 -26 78 -26 86 0 8 -4 14 -10 14 -5 0 -10 6 -10 14
0 7 -10 35 -22 62 -12 27 -23 51 -23 54 -1 3 -7 19 -14 35 -7 17 -14 35 -15
40 -2 6 -21 48 -43 95 -35 75 -52 113 -58 130 -2 7 -24 62 -32 80 -3 8 -7 18
-8 23 -2 4 -3 8 -5 10 -16 20 -19 154 -3 206 17 57 58 126 98 166 29 30 138
105 151 105 3 0 36 19 72 43 37 24 74 46 82 50 8 4 33 18 55 32 22 13 54 31
71 39 17 8 35 19 38 25 4 6 11 9 16 6 4 -3 13 2 20 10 7 8 17 15 22 15 31 0
203 154 263 235 17 22 32 42 35 45 4 3 17 23 30 45 34 56 113 179 120 185 3 3
25 29 48 59 23 29 42 51 42 48 0 -3 17 11 38 32 55 55 102 87 192 132 93 46
142 58 165 39 12 -10 16 -9 21 3 3 9 4 26 2 39 -3 21 -8 23 -58 22 -133 -2
-252 -44 -387 -135 -61 -42 -96 -90 -123 -167 -12 -37 -27 -71 -31 -77 -5 -5
-9 -17 -9 -27 0 -10 -3 -18 -7 -18 -5 0 -20 -22 -36 -49 -30 -54 -152 -181
-174 -181 -7 0 -13 -4 -13 -10 0 -5 -7 -10 -15 -10 -8 0 -15 -5 -15 -12 0 -6
-3 -9 -6 -5 -3 3 -24 -6 -47 -20 -22 -14 -45 -26 -51 -27 -6 -1 -17 -5 -24
-10 -23 -14 -27 4 -4 20 60 42 174 175 232 269 13 22 27 42 30 45 4 3 42 50
84 105 43 55 96 119 118 143 53 55 169 140 186 134 6 -2 12 0 12 6 0 7 67 34
92 36 3 1 10 4 13 8 4 4 25 5 47 2 38 -6 39 -5 34 21 -3 15 -7 30 -10 33 -3 2
-44 5 -91 4 -58 0 -85 4 -84 12 6 34 -40 114 -86 151 -36 29 -141 84 -162 85
-4 1 -21 11 -37 24 -16 14 -35 22 -43 19 -7 -3 -13 0 -13 7 0 7 -7 10 -15 6
-8 -3 -15 -2 -15 3 0 5 -15 12 -34 15 -43 8 -52 20 -55 72 -5 81 -3 82 295
371 111 107 208 198 339 318 132 121 213 207 305 321 48 59 146 235 170 304 7
19 16 44 20 55 11 25 27 81 36 120 11 51 7 178 -6 210 -7 17 -15 39 -17 50 -2
11 -8 22 -13 23 -6 2 -10 8 -10 14 0 38 -137 187 -222 240 -49 31 -258 136
-338 171 -85 36 -219 86 -241 90 -13 2 -31 7 -39 10 -19 8 -99 17 -176 20 -63
2 -85 13 -107 53 -6 12 -31 57 -54 98 -24 41 -43 80 -43 86 0 5 -4 10 -8 10
-5 0 -15 15 -24 33 -9 18 -28 47 -43 65 l-27 32 -19 -24 c-10 -13 -19 -29 -19
-35 0 -24 -17 -9 -47 42 -41 68 -69 95 -85 79 -7 -7 -8 -12 -2 -12 5 0 3 -4
-5 -9 -11 -7 -20 -3 -33 11 -15 18 -20 19 -34 7 -18 -14 -49 -78 -46 -91 1 -5
-2 -8 -7 -8 -5 0 -11 -8 -14 -17 -3 -10 -20 -54 -39 -98 -19 -44 -35 -84 -36
-90 -1 -5 -9 -30 -18 -55 -17 -47 -25 -72 -26 -80 0 -3 -7 -25 -14 -50 -16
-54 -26 -109 -39 -205 -4 -27 -9 -59 -10 -70 -9 -62 -29 -109 -63 -143 -51
-51 -174 -142 -184 -136 -4 3 -8 1 -8 -4 0 -5 -14 -15 -31 -22 -35 -15 -29
-19 -74 58 -14 23 -25 51 -25 62 0 10 -4 21 -8 24 -15 9 -20 161 -7 227 4 19
7 44 8 57 0 12 4 22 8 22 3 0 6 10 6 23 0 12 5 35 12 51 6 16 13 36 14 45 3
13 72 238 92 299 3 7 5 14 5 17 0 3 7 23 15 46 17 46 21 93 6 71 -4 -8 -11
-13 -15 -12 -11 3 -76 -33 -76 -42 0 -5 -7 -8 -15 -8 -8 0 -15 -4 -15 -10 0
-5 -6 -10 -13 -10 -8 0 -22 -9 -32 -20 -26 -28 -36 -15 -19 25 8 19 11 35 8
35 -4 0 -1 7 6 15 7 8 9 15 5 15 -4 0 -3 6 2 13 5 6 10 27 12 44 3 36 -7 37
-58 4 -23 -14 -23 -14 -17 7 10 31 0 28 -79 -20z m1437 -710 c8 -13 19 -34 23
-47 8 -25 10 -26 -75 37 -4 3 28 32 36 32 1 0 8 -10 16 -22z m-102 -159 c3 -3
41 -25 85 -49 79 -43 115 -72 115 -95 0 -14 -33 -31 -80 -41 -19 -4 -39 -9
-45 -10 -18 -5 -151 -29 -215 -40 -19 -3 -43 -10 -52 -15 -28 -15 -28 -11 1
59 41 98 64 142 73 142 4 0 8 5 8 11 0 7 9 27 21 45 l21 34 31 -17 c18 -10 34
-21 37 -24z m-17 -355 c-10 -7 -21 -14 -25 -14 -13 0 -71 -62 -123 -130 -28
-36 -52 -67 -56 -70 -3 -3 -18 -23 -34 -45 -17 -22 -34 -43 -40 -47 -5 -4 -6
-8 -2 -8 5 0 2 -6 -5 -13 -18 -19 -47 -58 -61 -84 -7 -12 -31 -55 -54 -94 -24
-39 -43 -76 -43 -80 0 -5 -4 -9 -10 -9 -5 0 -10 -6 -10 -12 -1 -26 -118 -184
-156 -211 -36 -25 -94 -45 -94 -32 0 6 11 20 38 50 7 8 10 15 5 15 -4 0 -3 4
3 8 6 4 58 77 115 162 57 85 107 157 112 158 4 2 7 9 7 15 0 7 11 25 25 41 14
16 25 33 25 37 0 4 6 14 13 21 6 7 37 49 67 93 30 44 60 86 67 93 7 7 13 17
13 22 0 5 27 37 60 71 33 34 60 58 60 54 0 -4 7 -2 16 5 16 14 84 29 97 22 5
-2 0 -10 -10 -18z m-1837 -313 c-3 -5 -8 -26 -11 -47 -3 -26 -14 -45 -32 -61
-16 -12 -33 -27 -39 -31 -14 -12 -130 -52 -150 -52 -14 0 -14 2 0 15 8 8 18
15 23 15 4 0 25 16 46 35 21 19 40 35 42 35 2 0 27 22 57 50 48 45 78 64 64
41z m1763 -116 c28 -23 77 -45 84 -39 8 9 68 11 73 3 3 -5 10 -7 16 -3 5 3 22
-5 36 -19 46 -42 75 -55 132 -57 46 -1 93 -5 108 -9 7 -2 -40 -61 -48 -61 -5
0 -32 -13 -60 -30 -27 -16 -50 -27 -50 -25 0 3 -18 -6 -40 -20 -54 -34 -60
-32 -49 17 6 23 6 45 1 50 -5 5 -46 -9 -94 -32 -47 -22 -88 -40 -92 -40 -3 0
3 20 14 45 11 25 17 45 15 45 -3 0 -1 11 4 23 15 38 -1 52 -37 33 -37 -19 -43
-20 -39 -3 3 16 -15 11 -91 -24 -35 -16 -74 -32 -88 -35 -13 -3 -24 -10 -24
-15 0 -5 -9 -9 -19 -9 -11 0 -23 -4 -26 -10 -3 -5 -12 -10 -18 -10 -7 0 -6 4
3 10 8 5 12 10 8 10 -6 0 78 126 111 166 4 5 14 21 21 34 7 13 17 29 21 34 5
6 19 24 30 39 l21 28 26 -38 c14 -21 37 -47 51 -58z m-686 -207 c-31 -55 -109
-125 -145 -131 -27 -4 -100 -3 -141 2 -13 2 4 42 29 70 16 17 36 26 61 27 70
5 150 27 188 51 28 18 28 17 8 -19z m1345 10 c18 -2 15 -33 -5 -50 -22 -18
-135 -73 -145 -70 -5 1 -8 -2 -8 -6 0 -5 -22 -19 -50 -32 -27 -13 -50 -27 -50
-31 0 -3 -10 -9 -21 -12 -14 -4 -5 9 27 38 27 25 53 44 57 45 5 0 5 5 2 10 -3
6 -2 10 4 10 5 0 36 25 68 55 47 45 63 55 83 50 14 -3 31 -6 38 -7z m-1906
-237 c35 2 75 -7 95 -23 13 -11 -2 -58 -19 -58 -5 0 -7 -4 -3 -10 3 -5 -8 -16
-25 -25 -47 -24 -72 -3 -105 93 -14 41 -14 42 5 32 11 -6 35 -10 52 -9z m353
-78 c-20 -48 -28 -55 -20 -18 11 48 14 55 25 55 6 0 4 -14 -5 -37z m610 -16
c-18 -39 -40 -53 -49 -31 -3 8 -1 14 5 14 6 0 9 6 7 12 -5 14 10 32 32 40 23
8 23 3 5 -35z m-313 -20 c62 -1 62 -1 23 -77 -9 -17 -12 -30 -8 -30 5 0 3 -4
-3 -8 -6 -4 -23 -25 -37 -47 -14 -22 -38 -53 -52 -70 -15 -16 -39 -46 -54 -65
-14 -19 -32 -41 -38 -48 -7 -7 -20 -35 -30 -62 -21 -59 -34 -66 -23 -12 5 20
11 54 14 75 3 20 9 54 12 75 4 20 8 46 9 57 1 11 3 20 5 20 1 0 3 11 5 25 18
164 27 183 84 174 20 -4 61 -7 93 -7z m770 -42 c-4 -9 -25 -34 -45 -58 -20
-23 -49 -57 -64 -74 -18 -21 -32 -30 -41 -25 -9 6 -5 17 18 40 17 18 32 32 34
32 3 0 26 22 53 50 51 53 59 59 45 35z m-989 -440 c-3 -9 -8 -14 -10 -11 -3 3
-2 9 2 15 9 16 15 13 8 -4z m-8 -35 c-3 -5 0 -10 7 -11 8 0 9 -2 2 -5 -9 -4
-8 -16 1 -48 44 -145 112 -229 363 -444 12 -11 22 -24 22 -31 0 -6 4 -11 9
-11 19 0 -3 -42 -33 -64 -39 -30 -136 -79 -136 -69 0 4 -5 2 -12 -5 -7 -7 -22
-12 -34 -12 -13 0 -26 -5 -29 -10 -4 -6 -10 -8 -14 -6 -4 3 -27 0 -52 -5 -123
-28 -129 -28 -155 -2 -36 36 -46 104 -30 198 3 17 7 48 10 70 3 22 7 50 10 61
2 12 7 38 10 58 3 20 8 51 11 69 3 18 7 49 9 68 2 20 6 40 9 45 3 5 8 40 12
78 6 67 10 86 21 86 3 0 2 -4 -1 -10z m4002 -755 c7 -11 17 -30 22 -42 5 -11
15 -24 20 -28 6 -3 11 -11 11 -17 0 -16 -32 20 -56 62 -10 19 -22 37 -26 40
-4 3 -12 19 -17 35 l-11 30 22 -30 c13 -16 28 -38 35 -50z m-3427 -485 c0 -5
-5 -10 -11 -10 -5 0 -7 5 -4 10 3 6 8 10 11 10 2 0 4 -4 4 -10z m1195 -188
c18 -15 118 -131 148 -173 41 -54 57 -79 57 -88 0 -5 4 -11 9 -13 10 -3 115
-202 123 -233 2 -11 6 -24 7 -30 2 -5 7 -18 12 -28 7 -13 -2 -10 -38 12 -26
16 -61 33 -77 37 -16 4 -46 18 -65 32 -20 13 -47 29 -61 35 -34 14 -171 18
-187 5 -7 -6 -13 -8 -13 -4 0 11 -100 -56 -101 -67 0 -7 -20 -30 -43 -52 -44
-40 -44 -40 -132 -42 -105 -2 -105 -2 -166 -33 -99 -49 -201 -171 -243 -288
-12 -32 -24 -51 -31 -48 -11 4 -161 115 -190 141 -7 6 -29 24 -49 40 -66 53
-95 85 -95 106 0 17 3 18 23 8 12 -7 24 -15 27 -19 13 -18 79 -43 119 -45 39
-2 70 6 136 35 11 5 41 18 68 29 61 26 167 97 190 128 22 28 28 71 15 96 -7
14 -20 17 -59 16 -27 -2 -49 -7 -49 -11 0 -5 -5 -6 -10 -3 -6 4 -17 2 -24 -4
-11 -9 -13 -5 -11 19 1 17 5 34 9 37 3 3 -4 14 -15 24 -20 17 -20 18 38 55 78
50 260 143 267 136 3 -3 6 0 6 6 0 7 3 11 8 11 13 -3 72 13 72 20 0 3 19 8 43
10 23 2 53 4 67 5 14 2 35 -1 48 -6 39 -14 80 16 110 80 14 31 25 62 25 69 0
17 8 16 32 -5z m2640 -61 c3 -5 2 -12 -3 -15 -5 -3 -9 1 -9 9 0 17 3 19 12 6z
m-9 -73 c-3 -13 -5 -30 -5 -39 -1 -9 -13 -22 -27 -30 -15 -7 -40 -37 -56 -66
-32 -57 -48 -60 -48 -12 0 17 4 28 8 25 4 -2 8 8 7 22 0 21 5 28 24 30 27 4
78 47 86 73 9 26 16 24 11 -3z m-4513 -208 c-3 -12 -8 -19 -11 -16 -5 6 5 36
12 36 2 0 2 -9 -1 -20z m4152 -40 c-10 -11 -22 -20 -26 -20 -5 0 2 10 14 23
27 28 38 25 12 -3z m-4155 0 c0 -5 -4 -10 -10 -10 -5 0 -10 5 -10 10 0 6 5 10
10 10 6 0 10 -4 10 -10z m-9 -52 c0 -18 2 -51 4 -73 3 -34 2 -36 -6 -16 -5 14
-7 31 -5 38 3 7 2 13 -2 13 -4 0 -8 16 -8 35 0 44 16 46 17 3z m3739 -68 c0
-5 -2 -10 -4 -10 -3 0 -8 5 -11 10 -3 6 -1 10 4 10 6 0 11 -4 11 -10z m-1398
-670 c-3 -126 -8 -225 -12 -225 -1 0 -3 -16 -5 -35 -5 -63 -15 -124 -24 -158
-5 -18 -10 -35 -10 -37 1 -19 -61 -160 -116 -265 -36 -69 -84 -162 -107 -207
-23 -46 -45 -83 -49 -83 -5 0 -8 35 -8 78 -1 42 -2 92 -4 110 -2 17 -4 44 -5
58 -4 59 -52 -24 -57 -99 -5 -61 -9 -85 -30 -146 -14 -44 -79 -163 -104 -193
-34 -39 -81 -108 -81 -117 0 -6 -5 -11 -11 -11 -5 0 -7 -4 -4 -10 3 -5 2 -10
-2 -10 -8 0 -27 -39 -40 -80 -3 -8 -6 -52 -8 -98 l-3 -83 -74 -95 c-40 -52
-109 -146 -153 -207 l-80 -112 -26 55 c-62 131 -60 126 -62 240 0 70 4 94 23
135 20 44 83 141 100 155 3 3 14 16 23 29 16 24 16 24 15 -30 -1 -59 12 -115
41 -169 l19 -35 10 25 c6 14 13 34 17 45 5 16 8 17 15 5 5 -8 6 -18 4 -22 -3
-4 -1 -8 4 -8 5 0 14 -10 19 -22 l11 -23 10 26 c6 15 14 47 17 70 3 24 9 58
12 74 3 17 6 36 6 43 0 6 4 12 9 12 4 0 7 3 6 8 -3 9 32 103 44 117 40 46 148
232 164 280 18 55 23 170 14 327 -1 20 -20 36 -20 17 0 -7 -8 -21 -17 -32 -12
-13 -18 -37 -20 -74 -1 -62 -9 -80 -12 -31 -1 18 -3 51 -5 73 -1 23 -7 49 -13
60 -10 17 -11 17 -17 -3 -4 -12 -12 -22 -17 -22 -6 0 -7 -5 -4 -10 4 -6 2 -16
-3 -23 -5 -7 -9 -29 -8 -49 1 -21 -2 -38 -7 -38 -5 0 -7 -7 -3 -15 4 -13 -3
-47 -22 -95 -3 -8 -6 -17 -7 -20 -1 -3 -9 -21 -17 -40 l-16 -35 -1 36 c-1 24
-9 43 -26 59 l-25 24 -28 -27 c-15 -15 -34 -44 -41 -64 -31 -90 -148 -304
-204 -373 -12 -16 -33 -43 -47 -61 -14 -18 -30 -37 -36 -43 -18 -19 -62 -120
-69 -161 -4 -22 -12 -48 -17 -57 -6 -12 -5 -18 2 -18 7 0 8 -6 1 -17 -12 -24
-7 -61 18 -127 11 -31 18 -56 16 -56 -6 0 -45 86 -49 105 -1 6 -4 15 -7 20
-21 35 -28 125 -16 197 13 72 70 167 178 296 10 12 19 26 19 30 0 5 11 19 25
32 14 13 25 29 25 36 0 7 4 14 8 16 11 4 72 97 72 109 0 5 4 9 10 9 5 0 9 3 9
8 -1 4 0 9 1 12 3 8 8 31 18 81 11 59 7 84 -19 110 -19 19 -22 19 -38 5 -22
-20 -31 -20 -47 2 -12 16 -15 15 -42 -13 -16 -16 -46 -70 -67 -118 -48 -112
-139 -270 -156 -275 -11 -3 -11 -2 -2 5 15 11 20 144 9 212 -15 92 -87 221
-148 266 l-23 17 25 -8 c14 -4 42 -6 63 -6 29 2 48 -5 75 -27 20 -16 57 -35
81 -41 48 -13 137 -6 158 12 7 6 13 7 13 4 0 -4 13 2 29 13 15 11 31 18 35 14
3 -3 6 -2 6 4 0 6 14 16 30 23 17 7 30 16 30 21 0 5 5 9 10 9 6 0 35 15 64 34
63 40 253 135 281 140 11 1 27 6 35 9 8 3 36 8 63 12 26 3 47 11 47 16 0 6 4
8 9 5 8 -5 26 39 23 55 -1 4 -3 17 -6 30 -9 49 -38 89 -87 118 -27 17 -53 31
-58 31 -10 0 -18 20 -26 60 -7 37 -32 48 -87 38 -28 -5 -52 -8 -54 -5 -2 2 -7
18 -10 35 -6 31 -6 32 32 33 98 3 173 8 214 14 57 8 161 43 180 60 8 8 18 13
22 12 12 -4 128 113 128 129 0 3 9 17 20 31 11 14 20 32 20 40 0 8 6 20 13 27
17 19 23 -38 19 -194z m-2043 -72 c6 -18 7 -28 2 -23 -10 12 -25 55 -18 55 3
0 10 -15 16 -32z m25 -68 c3 -14 11 -50 19 -80 23 -84 30 -154 31 -285 0 -106
-4 -153 -20 -245 -3 -14 -6 -36 -8 -50 -2 -14 -6 -32 -9 -40 -10 -25 -29 -104
-28 -122 0 -10 -4 -18 -10 -18 -5 0 -8 -3 -7 -7 2 -11 -13 -86 -21 -98 -3 -5
-6 -14 -8 -20 -10 -52 -47 -162 -55 -170 -8 -7 -9 -4 -3 10 7 18 18 68 31 135
3 14 7 33 10 42 3 9 7 25 9 35 2 10 11 45 20 78 27 105 34 134 45 195 5 25 11
61 15 80 4 19 8 64 10 100 2 36 4 66 5 68 1 1 2 32 2 70 0 99 -10 200 -26 260
-8 28 -12 52 -9 52 3 0 0 6 -6 13 -6 8 -8 17 -4 20 9 9 11 6 17 -23z m935 -19
c-6 -16 -21 -37 -35 -46 -23 -15 -24 -14 -24 4 0 15 52 70 67 71 1 0 -3 -13
-8 -29z m-604 -232 c-8 -12 -12 -44 -16 -111 -1 -27 -7 -48 -13 -48 -8 0 -8
-2 0 -8 13 -9 2 -173 -15 -214 -6 -15 -8 -36 -4 -45 3 -10 2 -14 -3 -10 -4 4
-7 84 -7 177 2 149 4 175 24 219 12 28 26 51 31 51 5 0 6 -5 3 -11z m131 -125
c-3 -24 4 -50 30 -126 4 -10 10 -18 15 -18 5 0 9 -6 9 -12 0 -7 14 -24 30 -37
33 -26 38 -41 15 -41 -9 0 -29 16 -46 35 -17 19 -42 38 -55 41 -13 3 -25 13
-28 22 -7 24 2 92 18 140 10 30 15 28 12 -4z m-292 -444 c10 -21 38 -60 62
-86 24 -26 44 -48 44 -50 0 -2 12 -16 26 -31 29 -30 61 -98 69 -143 14 -78 37
-101 81 -82 15 7 24 8 24 2 0 -19 49 -10 79 16 33 28 52 25 46 -6 -2 -11 1
-20 6 -20 6 0 9 -6 6 -12 -2 -7 4 -27 14 -44 18 -30 18 -32 0 -80 -11 -27 -22
-48 -25 -46 -16 6 -46 1 -41 -8 3 -5 1 -10 -4 -10 -6 0 -11 4 -11 9 0 23 -41
17 -77 -13 -45 -37 -153 -148 -153 -158 0 -4 -6 -13 -13 -20 -16 -17 -77 -113
-77 -121 0 -4 -11 -30 -25 -59 -14 -28 -25 -59 -25 -69 0 -9 -7 -22 -15 -29
-13 -10 -22 -8 -55 15 -36 25 -44 36 -41 57 0 4 -5 5 -12 2 -16 -6 -70 97 -66
126 0 3 -4 17 -10 33 -6 15 -7 27 -3 27 4 0 7 32 7 70 0 39 2 70 5 70 3 0 6
10 7 23 3 34 28 174 33 180 1 1 3 11 4 22 2 18 8 50 23 125 8 39 9 44 16 65 3
11 8 31 11 45 3 14 14 59 25 99 11 41 18 79 15 83 -3 4 0 8 5 8 6 0 11 11 11
25 0 36 12 31 34 -15z m1526 -64 c0 -3 -4 -8 -10 -11 -5 -3 -10 -1 -10 4 0 6
5 11 10 11 6 0 10 -2 10 -4z m-1100 -590 c-4 -18 -6 -55 -5 -81 2 -44 -3 -54
-51 -118 -28 -38 -69 -107 -90 -153 -40 -87 -54 -102 -54 -59 0 26 -15 34 -22
13 -3 -7 -5 -86 -5 -176 -1 -90 -3 -165 -6 -168 -12 -12 -30 68 -32 141 -2 94
14 171 57 280 35 88 106 215 119 215 5 0 8 3 7 8 -2 6 29 60 42 72 3 3 13 17
23 33 23 35 27 34 17 -7z m51 -233 c5 -52 51 -129 88 -148 26 -13 30 -13 42 1
8 10 15 12 23 4 30 -30 76 2 70 50 -2 23 -2 23 11 -5 8 -16 14 -36 15 -42 0
-7 5 -13 10 -13 6 0 10 -5 10 -12 0 -16 51 -68 67 -68 7 0 -8 -29 -32 -64 -25
-35 -45 -69 -45 -75 0 -6 -4 -11 -9 -11 -11 0 -63 -108 -86 -180 -25 -77 -31
-81 -66 -40 -55 67 -89 157 -104 280 -9 77 -17 96 -32 87 -11 -7 -10 -277 0
-295 14 -22 -8 -12 -25 12 -46 63 -76 133 -83 194 -6 47 54 209 110 299 19 31
34 42 36 26z m-1387 -430 c-4 -16 -11 -39 -17 -53 -15 -37 -15 -40 -32 -181
-3 -20 -9 -48 -14 -62 -5 -14 -12 -42 -16 -64 -8 -59 -14 -85 -19 -90 -2 -3 0
-18 4 -34 5 -16 5 -29 1 -29 -4 0 -6 -15 -4 -32 2 -18 5 -49 6 -68 2 -19 7
-46 11 -60 3 -14 -4 -5 -18 20 -13 25 -26 54 -28 65 -1 11 -6 22 -10 25 -21
17 -29 194 -11 265 20 79 56 175 65 175 4 0 7 3 6 8 -2 8 24 65 33 72 3 3 14
20 23 38 20 39 29 41 20 5z m1394 -260 c30 5 65 -11 88 -40 9 -11 8 -21 -3
-45 -14 -27 -17 -28 -25 -13 -6 9 -32 27 -59 40 -40 18 -89 57 -89 71 0 2 13
-2 29 -7 16 -6 43 -8 59 -6z"/>
<path d="M5622 8924 c-5 -22 -10 -55 -11 -74 -1 -19 -4 -48 -6 -65 -1 -16 -6
-59 -10 -95 -4 -36 -9 -81 -11 -100 -3 -19 -7 -46 -9 -60 -1 -14 -4 -27 -5
-30 -1 -3 -3 -9 -4 -15 -4 -27 -39 -129 -58 -172 -12 -26 -22 -50 -22 -53 -3
-14 -72 -146 -79 -151 -5 -3 -8 -8 -7 -10 1 -4 -3 -16 -31 -86 -26 -67 -31
-277 -7 -318 3 -6 9 -23 13 -40 11 -40 12 -44 15 -52 1 -5 2 -11 1 -15 0 -5 4
-8 9 -8 6 0 10 -7 10 -15 0 -17 28 -65 45 -77 5 -4 6 -8 2 -8 -5 0 14 -24 42
-52 42 -44 53 -50 61 -38 5 8 7 24 3 35 -4 15 2 12 26 -12 19 -20 37 -30 46
-27 18 7 15 22 -24 109 -14 33 -26 62 -27 65 0 3 -3 12 -7 20 -16 40 -34 117
-29 129 3 9 0 11 -8 6 -9 -6 -10 -3 -2 12 6 10 8 24 4 30 -6 9 -7 168 -2 168
1 0 4 12 6 28 2 15 6 39 8 55 2 15 5 29 6 32 1 3 3 10 4 15 5 29 29 99 48 141
12 27 23 56 24 64 2 8 8 16 14 18 5 2 8 7 5 12 -3 4 4 28 15 51 11 24 20 54
20 67 0 12 3 22 8 22 4 0 8 12 9 28 0 15 4 47 8 72 12 80 13 94 15 180 3 199
1 240 -15 240 -8 0 -15 -6 -16 -12 0 -7 -2 -21 -4 -31 -2 -10 -6 -48 -10 -85
-3 -37 -8 -89 -11 -117 -3 -27 -7 -70 -9 -95 -2 -25 -4 -47 -5 -50 -3 -8 -7
-24 -8 -37 -1 -7 -6 -13 -10 -13 -5 0 -5 26 0 58 15 92 16 358 2 377 -11 15
-14 12 -22 -21z m20 -449 c-6 -36 -19 -40 -14 -4 2 16 8 29 12 29 4 0 5 -11 2
-25z m-21 -68 c-10 -9 -11 -8 -5 6 3 10 9 15 12 12 3 -3 0 -11 -7 -18z"/>
<path d="M5854 8855 c-4 -9 -7 -41 -8 -71 0 -30 -3 -54 -6 -54 -3 0 -6 -17 -6
-37 -1 -38 -10 -123 -20 -198 -3 -22 -12 -67 -20 -100 -18 -74 -18 -74 -32
-108 -7 -16 -12 -30 -12 -33 0 -13 -94 -200 -103 -206 -7 -4 -8 -8 -3 -8 4 0
2 -10 -6 -22 -8 -13 -20 -41 -27 -63 -7 -22 -15 -47 -18 -55 -25 -66 -19 -231
11 -318 8 -22 12 -43 9 -46 -4 -3 -2 -6 3 -6 6 0 18 -22 27 -48 10 -26 29 -60
42 -74 14 -15 25 -29 25 -32 0 -2 16 -21 36 -41 26 -27 39 -34 47 -26 12 12 7
31 -46 161 -20 47 -39 108 -43 135 -9 60 -10 210 -2 281 7 55 36 172 46 189 4
5 7 12 8 15 1 5 11 30 39 95 24 57 55 146 60 175 3 14 9 47 14 74 5 28 8 58 6
68 -2 10 -1 18 3 18 4 0 7 77 7 172 0 128 -3 172 -12 175 -7 3 -16 -3 -19 -12z"/>
<path d="M6365 7025 c-37 -25 -71 -45 -76 -45 -5 0 -9 -4 -9 -10 0 -5 -7 -10
-15 -10 -8 0 -15 -4 -15 -10 0 -5 -4 -10 -10 -10 -11 0 -225 -134 -252 -158
-10 -8 -18 -11 -18 -6 0 5 -4 4 -8 -1 -4 -6 -50 -37 -102 -70 -129 -80 -136
-86 -135 -116 0 -29 70 -134 125 -189 39 -39 67 -63 155 -133 85 -68 85 -68
140 -106 28 -19 52 -38 55 -42 7 -9 93 -54 105 -54 6 -1 24 -9 42 -18 36 -19
63 -22 63 -7 0 6 30 -5 68 -24 114 -59 142 -68 161 -54 27 21 41 42 39 58 -1
8 1 25 6 37 4 12 9 88 11 170 5 159 10 245 20 308 4 22 8 51 10 65 13 92 18
116 26 126 5 6 7 13 4 15 -2 3 1 27 8 54 7 28 13 55 12 60 -3 36 -20 70 -49
99 -33 32 -48 35 -93 21 -13 -4 -23 -3 -23 2 0 14 -51 69 -75 81 -13 6 -27 7
-37 1 -10 -6 -26 -5 -42 0 -21 9 -35 4 -91 -34z"/>
<path d="M4583 6829 c-25 -9 -62 -59 -66 -90 -5 -32 55 -145 102 -190 62 -61
140 -95 156 -69 5 8 11 7 21 -1 7 -6 20 -9 28 -6 8 3 32 -8 53 -25 33 -27 91
-58 108 -58 3 0 14 14 24 31 23 38 21 47 -51 209 -34 76 -51 104 -72 121 -18
15 -25 15 -59 3 -22 -8 -41 -14 -42 -14 -2 0 -5 10 -9 23 -3 13 -16 35 -29 49
-21 22 -32 26 -84 25 -32 0 -69 -4 -80 -8z"/>
<path d="M5814 5916 c-13 -10 -23 -11 -31 -4 -7 5 -22 8 -35 6 -31 -4 -26 -43
11 -83 98 -107 253 -374 304 -525 8 -25 21 -58 28 -75 6 -16 14 -39 16 -49 2
-11 10 -47 19 -79 8 -33 17 -74 20 -91 2 -17 7 -49 11 -71 8 -51 8 -321 -1
-400 -3 -33 -8 -90 -10 -127 -2 -37 -7 -71 -10 -76 -3 -5 0 -17 7 -26 17 -24
45 -11 61 28 l13 31 0 -28 c1 -41 16 -53 45 -33 12 9 22 19 21 21 -2 3 8 29
21 57 26 57 57 139 77 203 18 56 28 64 19 17 -4 -22 -3 -47 2 -56 5 -9 5 -16
0 -16 -5 0 -9 -6 -9 -12 0 -7 -3 -49 -8 -93 -15 -160 -14 -215 6 -215 17 0 45
41 73 107 15 37 34 82 41 98 8 17 17 44 21 60 4 17 9 35 13 40 3 6 6 15 7 20
1 6 10 42 19 80 24 99 27 115 29 161 1 22 5 45 9 51 7 11 2 112 -9 173 -36
206 -131 392 -281 548 -35 35 -63 68 -63 73 0 5 -4 9 -8 9 -5 0 -24 15 -43 33
-19 17 -61 55 -93 82 -33 28 -65 56 -72 63 -7 6 -17 12 -23 12 -6 0 -11 4 -11
9 0 10 -19 9 -36 -1 -6 -4 -31 9 -55 29 -24 20 -51 43 -60 50 -13 11 -19 10
-35 -1z"/>
<path d="M8349 4366 c-2 -2 -18 -6 -36 -9 -28 -4 -89 -33 -103 -47 -7 -8 -303
-204 -315 -209 -5 -2 -18 -13 -27 -24 -10 -11 -18 -17 -18 -13 0 4 -6 1 -14
-6 -7 -7 -24 -20 -36 -28 -106 -70 -292 -228 -284 -241 3 -5 0 -9 -7 -9 -6 0
-9 -8 -6 -20 3 -11 1 -20 -4 -20 -10 0 -13 -33 -3 -42 3 -3 20 -2 39 2 18 4
37 4 42 -1 4 -4 26 -4 48 1 119 26 141 20 83 -22 -34 -24 -39 -24 -201 -19
-106 4 -152 -20 -283 -147 -133 -127 -274 -260 -274 -257 0 2 -70 -64 -215
-204 -87 -84 -217 -222 -270 -286 -22 -26 -45 -53 -51 -59 -101 -106 -306
-429 -289 -456 3 -6 1 -10 -4 -10 -6 0 -4 -8 5 -19 14 -16 21 -17 46 -7 23 8
31 8 37 -3 6 -9 14 -10 27 -3 11 5 51 21 90 35 l72 26 -24 -43 c-18 -32 -22
-49 -15 -71 8 -33 8 -33 66 -8 22 9 46 18 53 20 6 1 18 5 25 6 6 2 26 10 42
17 17 7 35 14 41 15 20 5 189 90 192 97 2 5 8 6 13 2 5 -3 9 -1 9 4 0 6 14 15
30 21 17 5 30 15 30 20 0 6 3 10 8 9 7 -2 78 41 123 77 14 11 36 27 49 35 12
8 39 29 59 45 21 17 54 44 75 60 21 17 53 44 71 60 18 17 63 57 101 90 105 92
179 162 404 385 114 113 247 241 295 285 48 44 102 94 120 110 17 17 64 59
104 95 101 89 108 98 133 148 18 39 27 107 14 119 -2 2 -35 -12 -74 -30 -39
-19 -73 -32 -76 -29 -11 11 -6 21 14 27 11 4 18 11 15 16 -4 5 -2 9 3 9 6 0
36 21 68 47 147 120 218 224 223 325 l2 57 -28 -5 c-49 -8 -67 -16 -101 -41
-39 -29 -48 -25 -35 14 5 15 8 39 7 53 -3 60 -2 59 -33 50 -17 -4 -33 -4 -38
1 -5 5 -11 7 -14 5z m-89 -565 c0 -5 -7 -11 -14 -14 -10 -4 -13 -1 -9 9 6 15
23 19 23 5z"/>
<path d="M3390 852 c0 -4 -9 -8 -21 -9 -20 -2 -101 -28 -129 -42 -8 -5 -23 -7
-32 -5 -10 1 -18 -1 -18 -6 0 -4 -22 -13 -50 -20 -27 -7 -50 -16 -50 -22 0 -5
-5 -6 -12 -2 -7 4 -8 3 -4 -4 4 -7 16 -12 27 -12 10 0 19 -3 19 -8 0 -9 87 -8
120 2 19 6 173 81 187 90 1 1 0 12 -4 24 -5 20 -33 32 -33 14z"/>
<path d="M5074 801 c-2 -2 -14 -5 -26 -6 -13 -1 -31 -5 -40 -9 -9 -4 -22 -5
-28 -1 -5 3 -10 2 -10 -2 0 -5 -33 -20 -72 -33 -97 -32 -117 -49 -52 -45 27 2
83 5 124 6 41 1 80 5 85 8 6 3 15 6 20 7 6 1 30 8 55 15 25 7 47 13 50 14 3 0
29 7 58 15 53 14 54 29 1 25 -16 -1 -29 0 -29 4 0 7 -129 9 -136 2z"/>
</g>
</svg>
